<svg width="95" height="16" viewBox="0 0 95 16" fill="none" xmlns="http://www.w3.org/2000/svg">
  <path
    d="M0 0.338013H7.53339C10.7388 0.338013 12.4294 1.96101 12.4294 4.40902C12.4294 6.85704 10.5765 8.15543 8.46661 8.41241C10.563 8.61528 11.4691 9.96778 11.8749 12.4023L12.4159 15.6753H9.18343L8.80474 12.5105C8.60186 10.6846 7.88504 9.79195 5.95097 9.79195H3.09721V15.6753H0V0.338013ZM9.37278 4.89592C9.37278 3.62458 8.50719 2.78603 6.85714 2.78603H3.09721V7.28984H6.53255C8.46661 7.28984 9.38631 6.37014 9.38631 4.90944L9.37278 4.89592Z"
    fill="#22223E" />
  <path
    d="M14.5665 10.1978C14.5665 6.54608 16.8657 4.44971 19.9765 4.44971C23.0872 4.44971 25.1836 6.76248 25.1836 10.3331V10.8064H17.5014C17.569 12.4835 18.3941 13.7955 20.1253 13.7955C21.8564 13.7955 22.2351 12.9434 22.6409 11.7397L25.1295 12.6323C24.4668 14.4582 22.7897 16 19.99 16C17.1903 16 14.553 13.6873 14.553 10.2113L14.5665 10.1978ZM22.2081 8.94C22.1405 7.35758 21.2884 6.55961 19.963 6.55961C18.6375 6.55961 17.7313 7.38463 17.5826 8.94H22.2216H22.2081Z"
    fill="#22223E" />
  <path
    d="M29.6872 13.4166V15.6888H27.9966V0.338013H29.7278V6.95171C30.2417 5.61274 31.4184 4.47665 33.3119 4.47665C35.2054 4.47665 37.7616 6.57301 37.7616 10.1977C37.7616 13.8224 35.8681 15.9458 33.393 15.9458C30.918 15.9458 30.2282 14.8503 29.6737 13.4031L29.6872 13.4166ZM35.9898 10.1842C35.9898 7.43861 34.7591 5.92382 32.852 5.92382C30.945 5.92382 29.6872 7.54681 29.6872 10.2247C29.6872 12.9027 30.9315 14.4986 32.8791 14.4986C34.8267 14.4986 36.0033 13.0109 36.0033 10.1706L35.9898 10.1842Z"
    fill="#22223E" />
  <path
    d="M40.4126 11.8073V4.7743H42.1708V11.4286C42.1708 13.4167 42.8336 14.4176 44.3348 14.4176C45.8361 14.4176 47.5267 12.9298 47.5267 10.279V4.7743H49.285V15.6889H47.5673V13.1327C47.0263 14.6746 45.7685 15.9459 43.8479 15.9459C41.9274 15.9459 40.4126 14.3364 40.4126 11.8208V11.8073Z"
    fill="#22223E" />
  <path
    d="M51.9629 14.2959H55.9257V6.14033H52.4092V4.76078H57.6704V14.2959H61.4574V15.6754H51.9629V14.2959ZM55.6687 1.06847C55.6687 0.473373 56.115 0 56.7778 0C57.4405 0 57.9139 0.473373 57.9139 1.06847C57.9139 1.66357 57.4675 2.16399 56.7778 2.16399C56.088 2.16399 55.6687 1.69062 55.6687 1.06847Z"
    fill="#22223E" />
  <path
    d="M63.8919 14.2959H67.8548V1.70413H64.3383V0.324585H69.613V14.2959H73.3729V15.6754H63.8784V14.2959H63.8919Z"
    fill="#22223E" />
  <path
    d="M74.9282 10.1977C74.9282 6.58654 76.8217 4.47665 79.405 4.47665C81.9882 4.47665 82.4751 5.61274 82.9891 6.95171V0.338013H84.7473V15.6888H83.0161V13.4843C82.4616 14.8638 81.1632 15.9593 79.2968 15.9593C77.4303 15.9593 74.9282 13.9982 74.9282 10.2112V10.1977ZM83.0161 10.2247C83.0161 7.50623 81.7448 5.89677 79.8783 5.89677C78.0119 5.89677 76.7406 7.45214 76.7406 10.1706C76.7406 12.8892 77.9443 14.4986 79.8648 14.4986C81.7854 14.4986 83.0567 12.7404 83.0297 10.2247H83.0161Z"
    fill="#22223E" />
  <path
    d="M88.115 12.6863C88.115 10.8739 89.5757 9.42677 91.4421 9.42677C93.3086 9.42677 94.7693 10.8739 94.7693 12.6863C94.7693 14.4986 93.2815 15.9458 91.4421 15.9458C89.6027 15.9458 88.115 14.5122 88.115 12.6863Z"
    fill="#22223E" />
</svg>