<?xml version="1.0" encoding="UTF-8"?>
<svg id="Layer_1" xmlns="http://www.w3.org/2000/svg" version="1.1" viewBox="0 0 820.3 236.3">
  <!-- Generator: Adobe Illustrator 30.0.0, SVG Export Plug-In . SVG Version: 2.1.1 Build 123)  -->
  <defs>
    <style>
      .st0 {
        fill: #22223e;
      }
    </style>
  </defs>
  <path class="st0" d="M59.7,61.3h55.7c23.7,0,36.2,12,36.2,30.1s-13.7,27.7-29.3,29.6c15.5,1.5,22.2,11.5,25.2,29.5l4,24.2h-23.9l-2.8-23.4c-1.5-13.5-6.8-20.1-21.1-20.1h-21.1v43.5h-22.9V61.3ZM129,95c0-9.4-6.4-15.6-18.6-15.6h-27.8v33.3h25.4c14.3,0,21.1-6.8,21.1-17.6Z"/>
  <path class="st0" d="M167.4,134.2c0-27,17-42.5,40-42.5s38.5,17.1,38.5,43.5v3.5h-56.8c.5,12.4,6.6,22.1,19.4,22.1s15.6-6.3,18.6-15.2l18.4,6.6c-4.9,13.5-17.3,24.9-38,24.9s-40.2-17.1-40.2-42.8ZM223.9,124.9c-.5-11.7-6.8-17.6-16.6-17.6s-16.5,6.1-17.6,17.6h34.3Z"/>
  <path class="st0" d="M279.2,158v16.8h-12.5V61.3h12.8v48.9c3.8-9.9,12.5-18.3,26.5-18.3s32.9,15.5,32.9,42.3-14,42.5-32.3,42.5-23.4-8.1-27.5-18.8ZM325.8,134.1c0-20.3-9.1-31.5-23.2-31.5s-23.4,12-23.4,31.8,9.2,31.6,23.6,31.6,23.1-11,23.1-32Z"/>
  <path class="st0" d="M358.5,146.1v-52h13v49.2c0,14.7,4.9,22.1,16,22.1s23.6-11,23.6-30.6v-40.7h13v80.7h-12.7v-18.9c-4,11.4-13.3,20.8-27.5,20.8s-25.4-11.9-25.4-30.5Z"/>
  <path class="st0" d="M443.9,164.5h29.3v-60.3h-26v-10.2h38.9v70.5h28v10.2h-70.2v-10.2ZM471.3,66.7c0-4.4,3.3-7.9,8.2-7.9s8.4,3.5,8.4,7.9-3.3,8.1-8.4,8.1-8.2-3.5-8.2-8.1Z"/>
  <path class="st0" d="M532.1,164.5h29.3v-93.1h-26v-10.2h39v103.3h27.8v10.2h-70.2v-10.2Z"/>
  <path class="st0" d="M613.7,134.2c0-26.7,14-42.3,33.1-42.3s22.7,8.4,26.5,18.3v-48.9h13v113.5h-12.8v-16.3c-4.1,10.2-13.7,18.3-27.5,18.3s-32.3-14.5-32.3-42.5ZM673.5,134.4c0-20.1-9.4-32-23.2-32s-23.2,11.5-23.2,31.6,8.9,32,23.1,32,23.6-13,23.4-31.6Z"/>
  <path class="st0" d="M711.2,152.6c0-13.4,10.8-24.1,24.6-24.1s24.6,10.7,24.6,24.1-11,24.1-24.6,24.1-24.6-10.6-24.6-24.1Z"/>
</svg>